<svg height="8046" width="720" xmlns="http://www.w3.org/2000/svg">
<rect height="8046" fill="#555" width="720"></rect>
<text fill="#7f7" font-family="Courier New" font-size="12" xml:space="preserve">
<tspan x="10" y="26">81 megabytes installed</tspan>
<tspan x="10" y="42"></tspan>
<tspan x="10" y="58">node_modules</tspan>
<tspan x="10" y="74">└─┬ web-ext@1.9.0 </tspan>
<tspan x="10" y="90">  ├─┬ addons-linter@0.18.2 </tspan>
<tspan x="10" y="106">  │ ├─┬ ajv@4.11.6 </tspan>
<tspan x="10" y="122">  │ │ ├── co@4.6.0 </tspan>
<tspan x="10" y="138">  │ │ └── json-stable-stringify@1.0.1 </tspan>
<tspan x="10" y="154">  │ ├─┬ chalk@1.1.3 </tspan>
<tspan x="10" y="170">  │ │ ├── ansi-styles@2.2.1 </tspan>
<tspan x="10" y="186">  │ │ ├─┬ has-ansi@2.0.0 </tspan>
<tspan x="10" y="202">  │ │ │ └── ansi-regex@2.1.1 </tspan>
<tspan x="10" y="218">  │ │ ├── strip-ansi@3.0.1 </tspan>
<tspan x="10" y="234">  │ │ └── supports-color@2.0.0 </tspan>
<tspan x="10" y="250">  │ ├─┬ cheerio@0.22.0 </tspan>
<tspan x="10" y="266">  │ │ ├─┬ css-select@1.2.0 </tspan>
<tspan x="10" y="282">  │ │ │ ├── boolbase@1.0.0 </tspan>
<tspan x="10" y="298">  │ │ │ ├── css-what@2.1.0 </tspan>
<tspan x="10" y="314">  │ │ │ ├── domutils@1.5.1 </tspan>
<tspan x="10" y="330">  │ │ │ └── nth-check@1.0.1 </tspan>
<tspan x="10" y="346">  │ │ ├─┬ dom-serializer@0.1.0 </tspan>
<tspan x="10" y="362">  │ │ │ └── domelementtype@1.1.3 </tspan>
<tspan x="10" y="378">  │ │ ├── entities@1.1.1 </tspan>
<tspan x="10" y="394">  │ │ ├─┬ htmlparser2@3.9.2 </tspan>
<tspan x="10" y="410">  │ │ │ ├── domelementtype@1.3.0 </tspan>
<tspan x="10" y="426">  │ │ │ └── domhandler@2.3.0 </tspan>
<tspan x="10" y="442">  │ │ ├── lodash.assignin@4.2.0 </tspan>
<tspan x="10" y="458">  │ │ ├── lodash.bind@4.2.1 </tspan>
<tspan x="10" y="474">  │ │ ├── lodash.defaults@4.2.0 </tspan>
<tspan x="10" y="490">  │ │ ├── lodash.filter@4.6.0 </tspan>
<tspan x="10" y="506">  │ │ ├── lodash.flatten@4.4.0 </tspan>
<tspan x="10" y="522">  │ │ ├── lodash.foreach@4.5.0 </tspan>
<tspan x="10" y="538">  │ │ ├── lodash.map@4.6.0 </tspan>
<tspan x="10" y="554">  │ │ ├── lodash.merge@4.6.0 </tspan>
<tspan x="10" y="570">  │ │ ├── lodash.pick@4.4.0 </tspan>
<tspan x="10" y="586">  │ │ ├── lodash.reduce@4.6.0 </tspan>
<tspan x="10" y="602">  │ │ ├── lodash.reject@4.6.0 </tspan>
<tspan x="10" y="618">  │ │ └── lodash.some@4.6.0 </tspan>
<tspan x="10" y="634">  │ ├─┬ columnify@1.5.4 </tspan>
<tspan x="10" y="650">  │ │ └─┬ wcwidth@1.0.1 </tspan>
<tspan x="10" y="666">  │ │   └─┬ defaults@1.0.3 </tspan>
<tspan x="10" y="682">  │ │     └── clone@1.0.2 </tspan>
<tspan x="10" y="698">  │ ├── crx-parser@0.1.2 </tspan>
<tspan x="10" y="714">  │ ├─┬ dispensary@0.10.5 </tspan>
<tspan x="10" y="730">  │ │ ├── array-from@2.1.1 </tspan>
<tspan x="10" y="746">  │ │ ├─┬ eslint@3.16.0 </tspan>
<tspan x="10" y="762">  │ │ │ ├── doctrine@1.5.0 </tspan>
<tspan x="10" y="778">  │ │ │ └── glob@7.1.1 </tspan>
<tspan x="10" y="794">  │ │ ├── natural-compare-lite@1.4.0 </tspan>
<tspan x="10" y="810">  │ │ ├─┬ request@2.81.0 </tspan>
<tspan x="10" y="826">  │ │ │ ├── caseless@0.12.0 </tspan>
<tspan x="10" y="842">  │ │ │ ├─┬ har-validator@4.2.1 </tspan>
<tspan x="10" y="858">  │ │ │ │ └── har-schema@1.0.5 </tspan>
<tspan x="10" y="874">  │ │ │ ├── performance-now@0.2.0 </tspan>
<tspan x="10" y="890">  │ │ │ ├── qs@6.4.0 </tspan>
<tspan x="10" y="906">  │ │ │ ├── safe-buffer@5.0.1 </tspan>
<tspan x="10" y="922">  │ │ │ └── tunnel-agent@0.6.0 </tspan>
<tspan x="10" y="938">  │ │ ├── sha.js@2.4.8 </tspan>
<tspan x="10" y="954">  │ │ ├── source-map-support@0.4.12 </tspan>
<tspan x="10" y="970">  │ │ └─┬ yargs@7.1.0 </tspan>
<tspan x="10" y="986">  │ │   └── camelcase@3.0.0 </tspan>
<tspan x="10" y="1002">  │ ├─┬ eslint@3.19.0 </tspan>
<tspan x="10" y="1018">  │ │ ├─┬ babel-code-frame@6.22.0 </tspan>
<tspan x="10" y="1034">  │ │ │ └── js-tokens@3.0.1 </tspan>
<tspan x="10" y="1050">  │ │ ├─┬ concat-stream@1.6.0 </tspan>
<tspan x="10" y="1066">  │ │ │ └── typedarray@0.0.6 </tspan>
<tspan x="10" y="1082">  │ │ ├── debug@2.6.4 </tspan>
<tspan x="10" y="1098">  │ │ ├─┬ doctrine@2.0.0 </tspan>
<tspan x="10" y="1114">  │ │ │ └── isarray@1.0.0 </tspan>
<tspan x="10" y="1130">  │ │ ├─┬ escope@3.6.0 </tspan>
<tspan x="10" y="1146">  │ │ │ ├─┬ es6-map@0.1.5 </tspan>
<tspan x="10" y="1162">  │ │ │ │ ├── d@1.0.0 </tspan>
<tspan x="10" y="1178">  │ │ │ │ ├── es5-ext@0.10.15 </tspan>
<tspan x="10" y="1194">  │ │ │ │ ├── es6-iterator@2.0.1 </tspan>
<tspan x="10" y="1210">  │ │ │ │ ├── es6-set@0.1.5 </tspan>
<tspan x="10" y="1226">  │ │ │ │ ├── es6-symbol@3.1.1 </tspan>
<tspan x="10" y="1242">  │ │ │ │ └── event-emitter@0.3.5 </tspan>
<tspan x="10" y="1258">  │ │ │ ├── es6-weak-map@2.0.2 </tspan>
<tspan x="10" y="1274">  │ │ │ └─┬ esrecurse@4.1.0 </tspan>
<tspan x="10" y="1290">  │ │ │   └── estraverse@4.1.1 </tspan>
<tspan x="10" y="1306">  │ │ ├─┬ espree@3.4.2 </tspan>
<tspan x="10" y="1322">  │ │ │ ├── acorn@5.0.3 </tspan>
<tspan x="10" y="1338">  │ │ │ └─┬ acorn-jsx@3.0.1 </tspan>
<tspan x="10" y="1354">  │ │ │   └── acorn@3.3.0 </tspan>
<tspan x="10" y="1370">  │ │ ├── esquery@1.0.0 </tspan>
<tspan x="10" y="1386">  │ │ ├── estraverse@4.2.0 </tspan>
<tspan x="10" y="1402">  │ │ ├── esutils@2.0.2 </tspan>
<tspan x="10" y="1418">  │ │ ├─┬ file-entry-cache@2.0.0 </tspan>
<tspan x="10" y="1434">  │ │ │ └─┬ flat-cache@1.2.2 </tspan>
<tspan x="10" y="1450">  │ │ │   ├── circular-json@0.3.1 </tspan>
<tspan x="10" y="1466">  │ │ │   ├─┬ del@2.2.2 </tspan>
<tspan x="10" y="1482">  │ │ │   │ ├─┬ globby@5.0.0 </tspan>
<tspan x="10" y="1498">  │ │ │   │ │ ├─┬ array-union@1.0.2 </tspan>
<tspan x="10" y="1514">  │ │ │   │ │ │ └── array-uniq@1.0.3 </tspan>
<tspan x="10" y="1530">  │ │ │   │ │ └── glob@7.1.1 </tspan>
<tspan x="10" y="1546">  │ │ │   │ ├── is-path-cwd@1.0.0 </tspan>
<tspan x="10" y="1562">  │ │ │   │ └─┬ is-path-in-cwd@1.0.0 </tspan>
<tspan x="10" y="1578">  │ │ │   │   └── is-path-inside@1.0.0 </tspan>
<tspan x="10" y="1594">  │ │ │   └── write@0.2.1 </tspan>
<tspan x="10" y="1610">  │ │ ├─┬ glob@7.1.1 </tspan>
<tspan x="10" y="1626">  │ │ │ ├── fs.realpath@1.0.0 </tspan>
<tspan x="10" y="1642">  │ │ │ ├── inflight@1.0.6 </tspan>
<tspan x="10" y="1658">  │ │ │ └── once@1.4.0 </tspan>
<tspan x="10" y="1674">  │ │ ├── globals@9.17.0 </tspan>
<tspan x="10" y="1690">  │ │ ├── ignore@3.2.7 </tspan>
<tspan x="10" y="1706">  │ │ ├── imurmurhash@0.1.4 </tspan>
<tspan x="10" y="1722">  │ │ ├─┬ inquirer@0.12.0 </tspan>
<tspan x="10" y="1738">  │ │ │ ├── ansi-escapes@1.4.0 </tspan>
<tspan x="10" y="1754">  │ │ │ ├─┬ cli-cursor@1.0.2 </tspan>
<tspan x="10" y="1770">  │ │ │ │ └─┬ restore-cursor@1.0.1 </tspan>
<tspan x="10" y="1786">  │ │ │ │   ├── exit-hook@1.1.1 </tspan>
<tspan x="10" y="1802">  │ │ │ │   └── onetime@1.1.0 </tspan>
<tspan x="10" y="1818">  │ │ │ ├── cli-width@2.1.0 </tspan>
<tspan x="10" y="1834">  │ │ │ ├── figures@1.7.0 </tspan>
<tspan x="10" y="1850">  │ │ │ ├─┬ readline2@1.0.1 </tspan>
<tspan x="10" y="1866">  │ │ │ │ └── mute-stream@0.0.5 </tspan>
<tspan x="10" y="1882">  │ │ │ ├── run-async@0.1.0 </tspan>
<tspan x="10" y="1898">  │ │ │ ├── rx-lite@3.1.2 </tspan>
<tspan x="10" y="1914">  │ │ │ └── through@2.3.8 </tspan>
<tspan x="10" y="1930">  │ │ ├─┬ is-my-json-valid@2.16.0 </tspan>
<tspan x="10" y="1946">  │ │ │ ├── generate-function@2.0.0 </tspan>
<tspan x="10" y="1962">  │ │ │ ├─┬ generate-object-property@1.2.0 </tspan>
<tspan x="10" y="1978">  │ │ │ │ └── is-property@1.0.2 </tspan>
<tspan x="10" y="1994">  │ │ │ └── jsonpointer@4.0.1 </tspan>
<tspan x="10" y="2010">  │ │ ├─┬ is-resolvable@1.0.0 </tspan>
<tspan x="10" y="2026">  │ │ │ └── tryit@1.0.3 </tspan>
<tspan x="10" y="2042">  │ │ ├─┬ js-yaml@3.8.3 </tspan>
<tspan x="10" y="2058">  │ │ │ └─┬ argparse@1.0.9 </tspan>
<tspan x="10" y="2074">  │ │ │   └── sprintf-js@1.0.3 </tspan>
<tspan x="10" y="2090">  │ │ ├─┬ levn@0.3.0 </tspan>
<tspan x="10" y="2106">  │ │ │ ├── prelude-ls@1.1.2 </tspan>
<tspan x="10" y="2122">  │ │ │ └── type-check@0.3.2 </tspan>
<tspan x="10" y="2138">  │ │ ├── natural-compare@1.4.0 </tspan>
<tspan x="10" y="2154">  │ │ ├─┬ optionator@0.8.2 </tspan>
<tspan x="10" y="2170">  │ │ │ ├── deep-is@0.1.3 </tspan>
<tspan x="10" y="2186">  │ │ │ ├── fast-levenshtein@2.0.6 </tspan>
<tspan x="10" y="2202">  │ │ │ └── wordwrap@1.0.0 </tspan>
<tspan x="10" y="2218">  │ │ ├── path-is-inside@1.0.2 </tspan>
<tspan x="10" y="2234">  │ │ ├── pluralize@1.2.1 </tspan>
<tspan x="10" y="2250">  │ │ ├── progress@1.1.8 </tspan>
<tspan x="10" y="2266">  │ │ ├── strip-bom@3.0.0 </tspan>
<tspan x="10" y="2282">  │ │ ├── strip-json-comments@2.0.1 </tspan>
<tspan x="10" y="2298">  │ │ ├─┬ table@3.8.3 </tspan>
<tspan x="10" y="2314">  │ │ │ ├── ajv-keywords@1.5.1 </tspan>
<tspan x="10" y="2330">  │ │ │ ├── slice-ansi@0.0.4 </tspan>
<tspan x="10" y="2346">  │ │ │ └─┬ string-width@2.0.0 </tspan>
<tspan x="10" y="2362">  │ │ │   └── is-fullwidth-code-point@2.0.0 </tspan>
<tspan x="10" y="2378">  │ │ ├── text-table@0.2.0 </tspan>
<tspan x="10" y="2394">  │ │ └─┬ user-home@2.0.0 </tspan>
<tspan x="10" y="2410">  │ │   └── os-homedir@1.0.2 </tspan>
<tspan x="10" y="2426">  │ ├── eslint-plugin-no-unsafe-innerhtml@1.0.15  (git://github.com/entequak/eslint-plugin-no-un\</tspan>
<tspan x="10" y="2442">safe-innerhtml.git#4b6b606d50c0ac30e1f76dbbf0008f41e1ff5e18)</tspan>
<tspan x="10" y="2458">  │ ├── esprima@3.1.3 </tspan>
<tspan x="10" y="2474">  │ ├─┬ first-chunk-stream@2.0.0 </tspan>
<tspan x="10" y="2490">  │ │ └─┬ readable-stream@2.2.9 </tspan>
<tspan x="10" y="2506">  │ │   ├── buffer-shims@1.0.0 </tspan>
<tspan x="10" y="2522">  │ │   ├── core-util-is@1.0.2 </tspan>
<tspan x="10" y="2538">  │ │   ├── process-nextick-args@1.0.7 </tspan>
<tspan x="10" y="2554">  │ │   ├── string_decoder@1.0.0 </tspan>
<tspan x="10" y="2570">  │ │   └── util-deprecate@1.0.2 </tspan>
<tspan x="10" y="2586">  │ ├─┬ postcss@5.2.17 </tspan>
<tspan x="10" y="2602">  │ │ ├── js-base64@2.1.9 </tspan>
<tspan x="10" y="2618">  │ │ └─┬ supports-color@3.2.3 </tspan>
<tspan x="10" y="2634">  │ │   └── has-flag@1.0.0 </tspan>
<tspan x="10" y="2650">  │ ├── relaxed-json@1.0.1 </tspan>
<tspan x="10" y="2666">  │ ├── semver@5.3.0 </tspan>
<tspan x="10" y="2682">  │ ├── source-map-support@0.4.13 </tspan>
<tspan x="10" y="2698">  │ ├─┬ strip-bom-stream@3.0.0 </tspan>
<tspan x="10" y="2714">  │ │ └─┬ strip-bom-buf@1.0.0 </tspan>
<tspan x="10" y="2730">  │ │   └── is-utf8@0.2.1 </tspan>
<tspan x="10" y="2746">  │ ├─┬ url-parse@1.1.8 </tspan>
<tspan x="10" y="2762">  │ │ ├── querystringify@0.0.4 </tspan>
<tspan x="10" y="2778">  │ │ └── requires-port@1.0.0 </tspan>
<tspan x="10" y="2794">  │ ├── xmldom@0.1.22 </tspan>
<tspan x="10" y="2810">  │ ├─┬ yargs@7.1.0 </tspan>
<tspan x="10" y="2826">  │ │ ├── camelcase@3.0.0 </tspan>
<tspan x="10" y="2842">  │ │ └─┬ yargs-parser@5.0.0 </tspan>
<tspan x="10" y="2858">  │ │   └── camelcase@3.0.0 </tspan>
<tspan x="10" y="2874">  │ └─┬ yauzl@2.7.0 </tspan>
<tspan x="10" y="2890">  │   ├── buffer-crc32@0.2.13 </tspan>
<tspan x="10" y="2906">  │   └─┬ fd-slicer@1.0.1 </tspan>
<tspan x="10" y="2922">  │     └── pend@1.2.0 </tspan>
<tspan x="10" y="2938">  ├─┬ babel-polyfill@6.20.0 </tspan>
<tspan x="10" y="2954">  │ └── core-js@2.4.1 </tspan>
<tspan x="10" y="2970">  ├── babel-runtime@6.23.0 </tspan>
<tspan x="10" y="2986">  ├─┬ bunyan@1.8.10 </tspan>
<tspan x="10" y="3002">  │ ├─┬ dtrace-provider@0.8.1 </tspan>
<tspan x="10" y="3018">  │ │ └── nan@2.6.2 </tspan>
<tspan x="10" y="3034">  │ ├── moment@2.18.1 </tspan>
<tspan x="10" y="3050">  │ ├─┬ mv@2.1.1 </tspan>
<tspan x="10" y="3066">  │ │ ├── ncp@2.0.0 </tspan>
<tspan x="10" y="3082">  │ │ └─┬ rimraf@2.4.5 </tspan>
<tspan x="10" y="3098">  │ │   └── glob@6.0.4 </tspan>
<tspan x="10" y="3114">  │ └── safe-json-stringify@1.0.4 </tspan>
<tspan x="10" y="3130">  ├── camelcase@4.1.0 </tspan>
<tspan x="10" y="3146">  ├─┬ debounce@1.0.0 </tspan>
<tspan x="10" y="3162">  │ └── date-now@1.0.1 </tspan>
<tspan x="10" y="3178">  ├── decamelize@1.2.0 </tspan>
<tspan x="10" y="3194">  ├── es6-error@4.0.2 </tspan>
<tspan x="10" y="3210">  ├─┬ es6-promisify@5.0.0 </tspan>
<tspan x="10" y="3226">  │ └── es6-promise@4.1.0 </tspan>
<tspan x="10" y="3242">  ├── event-to-promise@0.8.0 </tspan>
<tspan x="10" y="3258">  ├─┬ firefox-profile@0.5.0 </tspan>
<tspan x="10" y="3274">  │ ├── adm-zip@0.4.7 </tspan>
<tspan x="10" y="3290">  │ ├─┬ archiver@1.3.0 </tspan>
<tspan x="10" y="3306">  │ │ ├─┬ archiver-utils@1.3.0 </tspan>
<tspan x="10" y="3322">  │ │ │ ├── glob@7.1.1 </tspan>
<tspan x="10" y="3338">  │ │ │ └─┬ normalize-path@2.1.1 </tspan>
<tspan x="10" y="3354">  │ │ │   └── remove-trailing-separator@1.0.1 </tspan>
<tspan x="10" y="3370">  │ │ ├── glob@7.1.1 </tspan>
<tspan x="10" y="3386">  │ │ ├─┬ tar-stream@1.5.2 </tspan>
<tspan x="10" y="3402">  │ │ │ ├── bl@1.2.0 </tspan>
<tspan x="10" y="3418">  │ │ │ └── end-of-stream@1.4.0 </tspan>
<tspan x="10" y="3434">  │ │ ├── walkdir@0.0.11 </tspan>
<tspan x="10" y="3450">  │ │ └─┬ zip-stream@1.1.1 </tspan>
<tspan x="10" y="3466">  │ │   └─┬ compress-commons@1.2.0 </tspan>
<tspan x="10" y="3482">  │ │     └─┬ crc32-stream@2.0.0 </tspan>
<tspan x="10" y="3498">  │ │       └── crc@3.4.4 </tspan>
<tspan x="10" y="3514">  │ ├── async@2.1.5 </tspan>
<tspan x="10" y="3530">  │ ├─┬ fs-extra@2.1.2 </tspan>
<tspan x="10" y="3546">  │ │ └── jsonfile@2.4.0 </tspan>
<tspan x="10" y="3562">  │ ├── ini@1.3.4 </tspan>
<tspan x="10" y="3578">  │ ├── jetpack-id@1.0.0 </tspan>
<tspan x="10" y="3594">  │ ├── lazystream@1.0.0 </tspan>
<tspan x="10" y="3610">  │ ├── lodash@4.17.4 </tspan>
<tspan x="10" y="3626">  │ ├── minimist@1.2.0 </tspan>
<tspan x="10" y="3642">  │ ├── uuid@3.0.1 </tspan>
<tspan x="10" y="3658">  │ └─┬ xml2js@0.4.17 </tspan>
<tspan x="10" y="3674">  │   ├── sax@1.2.2 </tspan>
<tspan x="10" y="3690">  │   └── xmlbuilder@4.2.1 </tspan>
<tspan x="10" y="3706">  ├─┬ fx-runner@1.0.6 </tspan>
<tspan x="10" y="3722">  │ ├─┬ commander@2.9.0 </tspan>
<tspan x="10" y="3738">  │ │ └── graceful-readlink@1.0.1 </tspan>
<tspan x="10" y="3754">  │ ├─┬ fs-promise@0.3.1 </tspan>
<tspan x="10" y="3770">  │ │ └── any-promise@0.1.0 </tspan>
<tspan x="10" y="3786">  │ ├── lodash@3.10.1 </tspan>
<tspan x="10" y="3802">  │ ├─┬ shell-quote@1.6.1 </tspan>
<tspan x="10" y="3818">  │ │ ├── array-filter@0.0.1 </tspan>
<tspan x="10" y="3834">  │ │ ├── array-map@0.0.0 </tspan>
<tspan x="10" y="3850">  │ │ ├── array-reduce@0.0.0 </tspan>
<tspan x="10" y="3866">  │ │ └── jsonify@0.0.0 </tspan>
<tspan x="10" y="3882">  │ ├─┬ spawn-sync@1.0.15 </tspan>
<tspan x="10" y="3898">  │ │ └── os-shim@0.1.3 </tspan>
<tspan x="10" y="3914">  │ ├── when@3.7.7 </tspan>
<tspan x="10" y="3930">  │ ├─┬ which@1.2.4 </tspan>
<tspan x="10" y="3946">  │ │ ├─┬ is-absolute@0.1.7 </tspan>
<tspan x="10" y="3962">  │ │ │ └── is-relative@0.1.3 </tspan>
<tspan x="10" y="3978">  │ │ └── isexe@1.1.2 </tspan>
<tspan x="10" y="3994">  │ └── winreg@0.0.12 </tspan>
<tspan x="10" y="4010">  ├─┬ git-rev-sync@1.9.0 </tspan>
<tspan x="10" y="4026">  │ ├── escape-string-regexp@1.0.5 </tspan>
<tspan x="10" y="4042">  │ ├── graceful-fs@4.1.11 </tspan>
<tspan x="10" y="4058">  │ └─┬ shelljs@0.7.7 </tspan>
<tspan x="10" y="4074">  │   ├── glob@7.1.1 </tspan>
<tspan x="10" y="4090">  │   ├── interpret@1.0.3 </tspan>
<tspan x="10" y="4106">  │   └─┬ rechoir@0.6.2 </tspan>
<tspan x="10" y="4122">  │     └─┬ resolve@1.3.3 </tspan>
<tspan x="10" y="4138">  │       └── path-parse@1.0.5 </tspan>
<tspan x="10" y="4154">  ├─┬ minimatch@3.0.3 </tspan>
<tspan x="10" y="4170">  │ └─┬ brace-expansion@1.1.7 </tspan>
<tspan x="10" y="4186">  │   ├── balanced-match@0.4.2 </tspan>
<tspan x="10" y="4202">  │   └── concat-map@0.0.1 </tspan>
<tspan x="10" y="4218">  ├─┬ mkdirp@0.5.1 </tspan>
<tspan x="10" y="4234">  │ └── minimist@0.0.8 </tspan>
<tspan x="10" y="4250">  ├─┬ mz@2.6.0 </tspan>
<tspan x="10" y="4266">  │ ├── any-promise@1.3.0 </tspan>
<tspan x="10" y="4282">  │ ├── object-assign@4.1.1 </tspan>
<tspan x="10" y="4298">  │ └─┬ thenify-all@1.6.0 </tspan>
<tspan x="10" y="4314">  │   └─┬ thenify@3.2.1 </tspan>
<tspan x="10" y="4330">  │     └── any-promise@1.3.0 </tspan>
<tspan x="10" y="4346">  ├─┬ node-firefox-connect@1.2.0 </tspan>
<tspan x="10" y="4362">  │ ├── es6-promise@2.3.0 </tspan>
<tspan x="10" y="4378">  │ └─┬ firefox-client@0.3.0 </tspan>
<tspan x="10" y="4394">  │   ├── colors@0.5.1 </tspan>
<tspan x="10" y="4410">  │   └─┬ js-select@0.6.0 </tspan>
<tspan x="10" y="4426">  │     ├── JSONSelect@0.2.1 </tspan>
<tspan x="10" y="4442">  │     └── traverse@0.4.6 </tspan>
<tspan x="10" y="4458">  ├─┬ node-notifier@5.0.2 </tspan>
<tspan x="10" y="4474">  │ ├── growly@1.3.0 </tspan>
<tspan x="10" y="4490">  │ ├── shellwords@0.1.0 </tspan>
<tspan x="10" y="4506">  │ └─┬ which@1.2.14 </tspan>
<tspan x="10" y="4522">  │   └── isexe@2.0.0 </tspan>
<tspan x="10" y="4538">  ├── open@0.0.5 </tspan>
<tspan x="10" y="4554">  ├─┬ parse-json@2.2.0 </tspan>
<tspan x="10" y="4570">  │ └─┬ error-ex@1.3.1 </tspan>
<tspan x="10" y="4586">  │   └── is-arrayish@0.2.1 </tspan>
<tspan x="10" y="4602">  ├── regenerator-runtime@0.10.2 </tspan>
<tspan x="10" y="4618">  ├─┬ require-uncached@1.0.3 </tspan>
<tspan x="10" y="4634">  │ ├─┬ caller-path@0.1.0 </tspan>
<tspan x="10" y="4650">  │ │ └── callsites@0.2.0 </tspan>
<tspan x="10" y="4666">  │ └── resolve-from@1.0.1 </tspan>
<tspan x="10" y="4682">  ├─┬ sign-addon@0.2.1 </tspan>
<tspan x="10" y="4698">  │ ├─┬ babel-polyfill@6.16.0 </tspan>
<tspan x="10" y="4714">  │ │ └── regenerator-runtime@0.9.6 </tspan>
<tspan x="10" y="4730">  │ ├── deepcopy@0.6.3 </tspan>
<tspan x="10" y="4746">  │ ├── es6-error@4.0.0 </tspan>
<tspan x="10" y="4762">  │ ├─┬ jsonwebtoken@7.1.9 </tspan>
<tspan x="10" y="4778">  │ │ ├─┬ joi@6.10.1 </tspan>
<tspan x="10" y="4794">  │ │ │ ├── hoek@2.16.3 </tspan>
<tspan x="10" y="4810">  │ │ │ ├── isemail@1.2.0 </tspan>
<tspan x="10" y="4826">  │ │ │ └── topo@1.1.0 </tspan>
<tspan x="10" y="4842">  │ │ ├─┬ jws@3.1.4 </tspan>
<tspan x="10" y="4858">  │ │ │ ├── base64url@2.0.0 </tspan>
<tspan x="10" y="4874">  │ │ │ └─┬ jwa@1.1.5 </tspan>
<tspan x="10" y="4890">  │ │ │   ├── buffer-equal-constant-time@1.0.1 </tspan>
<tspan x="10" y="4906">  │ │ │   └── ecdsa-sig-formatter@1.0.9 </tspan>
<tspan x="10" y="4922">  │ │ ├── lodash.once@4.1.1 </tspan>
<tspan x="10" y="4938">  │ │ ├── ms@0.7.3 </tspan>
<tspan x="10" y="4954">  │ │ └── xtend@4.0.1 </tspan>
<tspan x="10" y="4970">  │ ├─┬ mz@2.5.0 </tspan>
<tspan x="10" y="4986">  │ │ └── any-promise@1.3.0 </tspan>
<tspan x="10" y="5002">  │ ├─┬ request@2.79.0 </tspan>
<tspan x="10" y="5018">  │ │ ├── aws-sign2@0.6.0 </tspan>
<tspan x="10" y="5034">  │ │ ├── aws4@1.6.0 </tspan>
<tspan x="10" y="5050">  │ │ ├── caseless@0.11.0 </tspan>
<tspan x="10" y="5066">  │ │ ├─┬ combined-stream@1.0.5 </tspan>
<tspan x="10" y="5082">  │ │ │ └── delayed-stream@1.0.0 </tspan>
<tspan x="10" y="5098">  │ │ ├── extend@3.0.0 </tspan>
<tspan x="10" y="5114">  │ │ ├── forever-agent@0.6.1 </tspan>
<tspan x="10" y="5130">  │ │ ├─┬ form-data@2.1.4 </tspan>
<tspan x="10" y="5146">  │ │ │ └── asynckit@0.4.0 </tspan>
<tspan x="10" y="5162">  │ │ ├─┬ har-validator@2.0.6 </tspan>
<tspan x="10" y="5178">  │ │ │ └─┬ pinkie-promise@2.0.1 </tspan>
<tspan x="10" y="5194">  │ │ │   └── pinkie@2.0.4 </tspan>
<tspan x="10" y="5210">  │ │ ├─┬ hawk@3.1.3 </tspan>
<tspan x="10" y="5226">  │ │ │ ├── boom@2.10.1 </tspan>
<tspan x="10" y="5242">  │ │ │ ├── cryptiles@2.0.5 </tspan>
<tspan x="10" y="5258">  │ │ │ └── sntp@1.0.9 </tspan>
<tspan x="10" y="5274">  │ │ ├─┬ http-signature@1.1.1 </tspan>
<tspan x="10" y="5290">  │ │ │ ├── assert-plus@0.2.0 </tspan>
<tspan x="10" y="5306">  │ │ │ ├─┬ jsprim@1.4.0 </tspan>
<tspan x="10" y="5322">  │ │ │ │ ├── assert-plus@1.0.0 </tspan>
<tspan x="10" y="5338">  │ │ │ │ ├── extsprintf@1.0.2 </tspan>
<tspan x="10" y="5354">  │ │ │ │ ├── json-schema@0.2.3 </tspan>
<tspan x="10" y="5370">  │ │ │ │ └── verror@1.3.6 </tspan>
<tspan x="10" y="5386">  │ │ │ └─┬ sshpk@1.13.0 </tspan>
<tspan x="10" y="5402">  │ │ │   ├── asn1@0.2.3 </tspan>
<tspan x="10" y="5418">  │ │ │   ├── assert-plus@1.0.0 </tspan>
<tspan x="10" y="5434">  │ │ │   ├── bcrypt-pbkdf@1.0.1 </tspan>
<tspan x="10" y="5450">  │ │ │   ├─┬ dashdash@1.14.1 </tspan>
<tspan x="10" y="5466">  │ │ │   │ └── assert-plus@1.0.0 </tspan>
<tspan x="10" y="5482">  │ │ │   ├── ecc-jsbn@0.1.1 </tspan>
<tspan x="10" y="5498">  │ │ │   ├─┬ getpass@0.1.6 </tspan>
<tspan x="10" y="5514">  │ │ │   │ └── assert-plus@1.0.0 </tspan>
<tspan x="10" y="5530">  │ │ │   ├── jodid25519@1.0.2 </tspan>
<tspan x="10" y="5546">  │ │ │   ├── jsbn@0.1.1 </tspan>
<tspan x="10" y="5562">  │ │ │   └── tweetnacl@0.14.5 </tspan>
<tspan x="10" y="5578">  │ │ ├── is-typedarray@1.0.0 </tspan>
<tspan x="10" y="5594">  │ │ ├── isstream@0.1.2 </tspan>
<tspan x="10" y="5610">  │ │ ├── json-stringify-safe@5.0.1 </tspan>
<tspan x="10" y="5626">  │ │ ├─┬ mime-types@2.1.15 </tspan>
<tspan x="10" y="5642">  │ │ │ └── mime-db@1.27.0 </tspan>
<tspan x="10" y="5658">  │ │ ├── oauth-sign@0.8.2 </tspan>
<tspan x="10" y="5674">  │ │ ├── qs@6.3.2 </tspan>
<tspan x="10" y="5690">  │ │ ├── stringstream@0.0.5 </tspan>
<tspan x="10" y="5706">  │ │ ├─┬ tough-cookie@2.3.2 </tspan>
<tspan x="10" y="5722">  │ │ │ └── punycode@1.4.1 </tspan>
<tspan x="10" y="5738">  │ │ └── tunnel-agent@0.4.3 </tspan>
<tspan x="10" y="5754">  │ └── source-map-support@0.4.6 </tspan>
<tspan x="10" y="5770">  ├─┬ source-map-support@0.4.14 </tspan>
<tspan x="10" y="5786">  │ └── source-map@0.5.6 </tspan>
<tspan x="10" y="5802">  ├─┬ stream-to-promise@2.2.0 </tspan>
<tspan x="10" y="5818">  │ ├── any-promise@1.3.0 </tspan>
<tspan x="10" y="5834">  │ ├─┬ end-of-stream@1.1.0 </tspan>
<tspan x="10" y="5850">  │ │ └─┬ once@1.3.3 </tspan>
<tspan x="10" y="5866">  │ │   └── wrappy@1.0.2 </tspan>
<tspan x="10" y="5882">  │ └─┬ stream-to-array@2.3.0 </tspan>
<tspan x="10" y="5898">  │   └── any-promise@1.3.0 </tspan>
<tspan x="10" y="5914">  ├─┬ tmp@0.0.30 </tspan>
<tspan x="10" y="5930">  │ └── os-tmpdir@1.0.2 </tspan>
<tspan x="10" y="5946">  ├─┬ update-notifier@2.1.0 </tspan>
<tspan x="10" y="5962">  │ ├─┬ boxen@1.0.0 </tspan>
<tspan x="10" y="5978">  │ │ ├── ansi-align@1.1.0 </tspan>
<tspan x="10" y="5994">  │ │ ├── cli-boxes@1.0.0 </tspan>
<tspan x="10" y="6010">  │ │ ├─┬ string-width@2.0.0 </tspan>
<tspan x="10" y="6026">  │ │ │ └── is-fullwidth-code-point@2.0.0 </tspan>
<tspan x="10" y="6042">  │ │ ├─┬ term-size@0.1.1 </tspan>
<tspan x="10" y="6058">  │ │ │ └─┬ execa@0.4.0 </tspan>
<tspan x="10" y="6074">  │ │ │   ├─┬ cross-spawn-async@2.2.5 </tspan>
<tspan x="10" y="6090">  │ │ │   │ ├─┬ lru-cache@4.0.2 </tspan>
<tspan x="10" y="6106">  │ │ │   │ │ ├── pseudomap@1.0.2 </tspan>
<tspan x="10" y="6122">  │ │ │   │ │ └── yallist@2.1.2 </tspan>
<tspan x="10" y="6138">  │ │ │   │ └─┬ which@1.2.14 </tspan>
<tspan x="10" y="6154">  │ │ │   │   └── isexe@2.0.0 </tspan>
<tspan x="10" y="6170">  │ │ │   ├── is-stream@1.1.0 </tspan>
<tspan x="10" y="6186">  │ │ │   ├── npm-run-path@1.0.0 </tspan>
<tspan x="10" y="6202">  │ │ │   ├── path-key@1.0.0 </tspan>
<tspan x="10" y="6218">  │ │ │   └── strip-eof@1.0.0 </tspan>
<tspan x="10" y="6234">  │ │ └── widest-line@1.0.0 </tspan>
<tspan x="10" y="6250">  │ ├─┬ configstore@3.0.0 </tspan>
<tspan x="10" y="6266">  │ │ ├─┬ dot-prop@4.1.1 </tspan>
<tspan x="10" y="6282">  │ │ │ └── is-obj@1.0.1 </tspan>
<tspan x="10" y="6298">  │ │ ├─┬ unique-string@1.0.0 </tspan>
<tspan x="10" y="6314">  │ │ │ └── crypto-random-string@1.0.0 </tspan>
<tspan x="10" y="6330">  │ │ └─┬ write-file-atomic@1.3.3 </tspan>
<tspan x="10" y="6346">  │ │   └── slide@1.1.6 </tspan>
<tspan x="10" y="6362">  │ ├── is-npm@1.0.0 </tspan>
<tspan x="10" y="6378">  │ ├─┬ latest-version@3.1.0 </tspan>
<tspan x="10" y="6394">  │ │ └─┬ package-json@4.0.1 </tspan>
<tspan x="10" y="6410">  │ │   ├─┬ got@6.7.1 </tspan>
<tspan x="10" y="6426">  │ │   │ ├─┬ create-error-class@3.0.2 </tspan>
<tspan x="10" y="6442">  │ │   │ │ └── capture-stack-trace@1.0.0 </tspan>
<tspan x="10" y="6458">  │ │   │ ├── duplexer3@0.1.4 </tspan>
<tspan x="10" y="6474">  │ │   │ ├── get-stream@3.0.0 </tspan>
<tspan x="10" y="6490">  │ │   │ ├── is-redirect@1.0.0 </tspan>
<tspan x="10" y="6506">  │ │   │ ├── is-retry-allowed@1.1.0 </tspan>
<tspan x="10" y="6522">  │ │   │ ├── lowercase-keys@1.0.0 </tspan>
<tspan x="10" y="6538">  │ │   │ ├── timed-out@4.0.1 </tspan>
<tspan x="10" y="6554">  │ │   │ ├── unzip-response@2.0.1 </tspan>
<tspan x="10" y="6570">  │ │   │ └─┬ url-parse-lax@1.0.0 </tspan>
<tspan x="10" y="6586">  │ │   │   └── prepend-http@1.0.4 </tspan>
<tspan x="10" y="6602">  │ │   ├─┬ registry-auth-token@3.3.0 </tspan>
<tspan x="10" y="6618">  │ │   │ └─┬ rc@1.2.1 </tspan>
<tspan x="10" y="6634">  │ │   │   ├── deep-extend@0.4.1 </tspan>
<tspan x="10" y="6650">  │ │   │   └── minimist@1.2.0 </tspan>
<tspan x="10" y="6666">  │ │   └── registry-url@3.1.0 </tspan>
<tspan x="10" y="6682">  │ ├── lazy-req@2.0.0 </tspan>
<tspan x="10" y="6698">  │ ├── semver-diff@2.1.0 </tspan>
<tspan x="10" y="6714">  │ └── xdg-basedir@3.0.0 </tspan>
<tspan x="10" y="6730">  ├─┬ watchpack@1.3.0 </tspan>
<tspan x="10" y="6746">  │ ├── async@2.3.0 </tspan>
<tspan x="10" y="6762">  │ └─┬ chokidar@1.6.1 </tspan>
<tspan x="10" y="6778">  │   ├─┬ anymatch@1.3.0 </tspan>
<tspan x="10" y="6794">  │   │ ├── arrify@1.0.1 </tspan>
<tspan x="10" y="6810">  │   │ └─┬ micromatch@2.3.11 </tspan>
<tspan x="10" y="6826">  │   │   ├─┬ arr-diff@2.0.0 </tspan>
<tspan x="10" y="6842">  │   │   │ └── arr-flatten@1.0.3 </tspan>
<tspan x="10" y="6858">  │   │   ├── array-unique@0.2.1 </tspan>
<tspan x="10" y="6874">  │   │   ├─┬ braces@1.8.5 </tspan>
<tspan x="10" y="6890">  │   │   │ ├─┬ expand-range@1.8.2 </tspan>
<tspan x="10" y="6906">  │   │   │ │ └─┬ fill-range@2.2.3 </tspan>
<tspan x="10" y="6922">  │   │   │ │   ├── is-number@2.1.0 </tspan>
<tspan x="10" y="6938">  │   │   │ │   ├── isobject@2.1.0 </tspan>
<tspan x="10" y="6954">  │   │   │ │   ├── randomatic@1.1.6 </tspan>
<tspan x="10" y="6970">  │   │   │ │   └── repeat-string@1.6.1 </tspan>
<tspan x="10" y="6986">  │   │   │ ├── preserve@0.2.0 </tspan>
<tspan x="10" y="7002">  │   │   │ └── repeat-element@1.1.2 </tspan>
<tspan x="10" y="7018">  │   │   ├─┬ expand-brackets@0.1.5 </tspan>
<tspan x="10" y="7034">  │   │   │ └── is-posix-bracket@0.1.1 </tspan>
<tspan x="10" y="7050">  │   │   ├── extglob@0.3.2 </tspan>
<tspan x="10" y="7066">  │   │   ├── filename-regex@2.0.0 </tspan>
<tspan x="10" y="7082">  │   │   ├─┬ kind-of@3.1.0 </tspan>
<tspan x="10" y="7098">  │   │   │ └── is-buffer@1.1.5 </tspan>
<tspan x="10" y="7114">  │   │   ├─┬ object.omit@2.0.1 </tspan>
<tspan x="10" y="7130">  │   │   │ ├─┬ for-own@0.1.5 </tspan>
<tspan x="10" y="7146">  │   │   │ │ └── for-in@1.0.2 </tspan>
<tspan x="10" y="7162">  │   │   │ └── is-extendable@0.1.1 </tspan>
<tspan x="10" y="7178">  │   │   ├─┬ parse-glob@3.0.4 </tspan>
<tspan x="10" y="7194">  │   │   │ ├── glob-base@0.3.0 </tspan>
<tspan x="10" y="7210">  │   │   │ └── is-dotfile@1.0.2 </tspan>
<tspan x="10" y="7226">  │   │   └─┬ regex-cache@0.4.3 </tspan>
<tspan x="10" y="7242">  │   │     ├── is-equal-shallow@0.1.3 </tspan>
<tspan x="10" y="7258">  │   │     └── is-primitive@2.0.0 </tspan>
<tspan x="10" y="7274">  │   ├── async-each@1.0.1 </tspan>
<tspan x="10" y="7290">  │   ├── glob-parent@2.0.0 </tspan>
<tspan x="10" y="7306">  │   ├── inherits@2.0.3 </tspan>
<tspan x="10" y="7322">  │   ├─┬ is-binary-path@1.0.1 </tspan>
<tspan x="10" y="7338">  │   │ └── binary-extensions@1.8.0 </tspan>
<tspan x="10" y="7354">  │   ├─┬ is-glob@2.0.1 </tspan>
<tspan x="10" y="7370">  │   │ └── is-extglob@1.0.0 </tspan>
<tspan x="10" y="7386">  │   ├── path-is-absolute@1.0.1 </tspan>
<tspan x="10" y="7402">  │   └─┬ readdirp@2.1.0 </tspan>
<tspan x="10" y="7418">  │     └── set-immediate-shim@1.0.1 </tspan>
<tspan x="10" y="7434">  ├─┬ yargs@6.6.0 </tspan>
<tspan x="10" y="7450">  │ ├── camelcase@3.0.0 </tspan>
<tspan x="10" y="7466">  │ ├─┬ cliui@3.2.0 </tspan>
<tspan x="10" y="7482">  │ │ └── wrap-ansi@2.1.0 </tspan>
<tspan x="10" y="7498">  │ ├── get-caller-file@1.0.2 </tspan>
<tspan x="10" y="7514">  │ ├─┬ os-locale@1.4.0 </tspan>
<tspan x="10" y="7530">  │ │ └─┬ lcid@1.0.0 </tspan>
<tspan x="10" y="7546">  │ │   └── invert-kv@1.0.0 </tspan>
<tspan x="10" y="7562">  │ ├─┬ read-pkg-up@1.0.1 </tspan>
<tspan x="10" y="7578">  │ │ ├─┬ find-up@1.1.2 </tspan>
<tspan x="10" y="7594">  │ │ │ └── path-exists@2.1.0 </tspan>
<tspan x="10" y="7610">  │ │ └─┬ read-pkg@1.1.0 </tspan>
<tspan x="10" y="7626">  │ │   ├─┬ load-json-file@1.1.0 </tspan>
<tspan x="10" y="7642">  │ │   │ ├── pify@2.3.0 </tspan>
<tspan x="10" y="7658">  │ │   │ └── strip-bom@2.0.0 </tspan>
<tspan x="10" y="7674">  │ │   ├─┬ normalize-package-data@2.3.8 </tspan>
<tspan x="10" y="7690">  │ │   │ ├── hosted-git-info@2.4.2 </tspan>
<tspan x="10" y="7706">  │ │   │ ├─┬ is-builtin-module@1.0.0 </tspan>
<tspan x="10" y="7722">  │ │   │ │ └── builtin-modules@1.1.1 </tspan>
<tspan x="10" y="7738">  │ │   │ └─┬ validate-npm-package-license@3.0.1 </tspan>
<tspan x="10" y="7754">  │ │   │   ├─┬ spdx-correct@1.0.2 </tspan>
<tspan x="10" y="7770">  │ │   │   │ └── spdx-license-ids@1.2.2 </tspan>
<tspan x="10" y="7786">  │ │   │   └── spdx-expression-parse@1.0.4 </tspan>
<tspan x="10" y="7802">  │ │   └── path-type@1.1.0 </tspan>
<tspan x="10" y="7818">  │ ├── require-directory@2.1.1 </tspan>
<tspan x="10" y="7834">  │ ├── require-main-filename@1.0.1 </tspan>
<tspan x="10" y="7850">  │ ├── set-blocking@2.0.0 </tspan>
<tspan x="10" y="7866">  │ ├─┬ string-width@1.0.2 </tspan>
<tspan x="10" y="7882">  │ │ ├── code-point-at@1.1.0 </tspan>
<tspan x="10" y="7898">  │ │ └─┬ is-fullwidth-code-point@1.0.0 </tspan>
<tspan x="10" y="7914">  │ │   └── number-is-nan@1.0.1 </tspan>
<tspan x="10" y="7930">  │ ├── which-module@1.0.0 </tspan>
<tspan x="10" y="7946">  │ ├── y18n@3.2.1 </tspan>
<tspan x="10" y="7962">  │ └── yargs-parser@4.2.1 </tspan>
<tspan x="10" y="7978">  └─┬ zip-dir@1.0.2 </tspan>
<tspan x="10" y="7994">    ├── async@1.5.2 </tspan>
<tspan x="10" y="8010">    └─┬ jszip@2.6.1 </tspan>
<tspan x="10" y="8026">      └── pako@1.0.5</tspan>
</text>
</svg>
